<svg id="Layer_1" data-name="Layer 1" xmlns="http://www.w3.org/2000/svg" viewBox="0 0 81.47 81.66"><defs><style>.cls-1{fill:#221f1f;}.cls-2{fill:#fff;}</style></defs><rect class="cls-1" width="81.47" height="81.66"/><path class="cls-2" d="M41.29,39.66c0,11.83-6.64,20.47-17.1,20.47h-13V19.25h13C34.65,19.25,41.29,27.66,41.29,39.66ZM23.5,50.1c5.25,0,8.54-3.71,8.54-10.44S28.75,29.11,23.5,29.11H20.34v21Z"/><path class="cls-2" d="M57.37,27.19c6.6,0,11.43,4.7,12.73,12.88H60.43c-.51-2-1.53-3.19-3.25-3.19-2.23,0-3.72,2.32-3.72,6.95s1.49,7,3.72,7c1.72,0,2.74-1.16,3.25-3.19H70.1c-1.3,8.08-6.1,12.9-12.73,12.9-7.76,0-13.2-6.33-13.2-16.71S49.61,27.19,57.37,27.19Z"/></svg>